<?xml version="1.0" standalone="no"?>
<!DOCTYPE svg PUBLIC "-//W3C//DTD SVG 20010904//EN"
 "http://www.w3.org/TR/2001/REC-SVG-20010904/DTD/svg10.dtd">
<svg version="1.0" xmlns="http://www.w3.org/2000/svg"
 width="1000.000000pt" height="1000.000000pt" viewBox="0 0 1000.000000 1000.000000"
 preserveAspectRatio="xMidYMid meet">
<metadata>
Created by potrace 1.14, written by Peter Selinger 2001-2017
</metadata>
<g transform="translate(0.000000,1000.000000) scale(0.100000,-0.100000)"
fill="#000000" stroke="none">
<path d="M2540 9985 c0 -18 -16 -22 -168 -34 -190 -16 -188 -24 18 -77 l150
-39 0 -97 c0 -97 0 -98 -24 -98 -27 0 -56 23 -56 44 0 18 -27 40 -34 28 -3 -5
-10 -39 -16 -77 -13 -79 -14 -77 71 -95 l59 -13 0 -243 0 -243 -97 46 c-54 24
-201 91 -328 148 -126 57 -365 165 -530 239 l-299 136 -40 -28 c-22 -15 -110
-97 -196 -182 -320 -317 -553 -635 -742 -1015 -113 -225 -153 -344 -152 -450
1 -91 28 -149 108 -233 49 -52 366 -322 641 -546 62 -51 94 -78 109 -91 6 -6
30 -25 54 -44 l42 -33 161 99 c178 109 282 184 313 225 31 43 26 133 -13 233
-38 97 -111 220 -130 220 -11 0 -23 -41 -45 -144 l-31 -145 -70 -18 c-38 -9
-77 -18 -86 -18 -11 0 -30 33 -59 103 -24 56 -53 125 -66 152 -47 108 -124
295 -124 304 0 15 71 73 114 92 25 11 64 19 102 19 118 0 181 -50 414 -329 80
-95 204 -242 275 -325 72 -84 149 -174 172 -201 70 -83 372 -436 427 -499 28
-32 56 -66 63 -75 8 -10 12 -54 13 -122 l0 -106 -102 -69 c-583 -388 -1108
-837 -1568 -1339 -304 -332 -700 -865 -643 -865 3 0 52 18 107 40 56 22 274
105 486 185 212 80 441 168 510 195 192 76 603 230 605 227 8 -14 53 -91 73
-127 89 -159 117 -209 133 -237 l20 -31 -328 -263 c-180 -145 -386 -310 -458
-368 -71 -58 -244 -196 -383 -308 l-252 -203 -51 0 c-40 0 -55 -5 -76 -26 -23
-23 -25 -31 -20 -75 l6 -49 -63 0 c-74 0 -123 -15 -129 -38 -5 -27 11 -73 34
-98 l22 -24 -26 -21 c-34 -26 -35 -68 -3 -105 l23 -28 -18 -60 c-30 -98 -68
-304 -84 -458 -16 -160 -60 -622 -185 -1953 -16 -176 -30 -328 -30 -338 0 -16
99 -17 1966 -17 1353 0 1963 3 1959 10 -4 6 4 25 17 43 47 63 70 109 59 120
-13 13 -10 16 -49 -53 -52 -90 -47 -87 -76 -54 -14 16 -26 32 -26 37 0 4 26
53 58 110 93 163 147 283 203 446 19 55 26 88 19 95 -6 6 -11 4 -14 -5 -66
-193 -162 -405 -249 -553 l-41 -69 -23 29 c-71 87 -221 338 -241 404 -28 89
-87 491 -122 826 l-20 201 24 104 c14 57 26 113 28 124 3 18 11 20 83 20 84 1
114 11 168 58 32 29 33 40 8 81 -47 77 -51 114 -53 581 -3 399 -5 443 -21 472
-29 54 -59 67 -166 71 -68 3 -101 9 -113 20 -17 14 -18 74 -18 999 l0 983 -60
0 c-33 0 -60 1 -60 3 0 11 97 296 135 397 77 204 254 556 296 590 12 10 31 52
25 57 -3 3 -12 0 -20 -6 -12 -10 -21 -8 -48 13 -19 14 -65 40 -103 58 -64 30
-78 33 -165 33 -79 0 -103 -4 -139 -22 -25 -13 -46 -23 -48 -23 -2 0 -3 31 -3
68 l0 69 83 47 c45 25 180 96 300 157 l217 110 0 -139 c0 -112 -3 -142 -15
-152 -8 -7 -15 -18 -15 -25 0 -7 -22 -28 -50 -46 -27 -19 -50 -40 -50 -47 0
-20 26 -25 57 -9 15 8 38 18 51 21 l22 7 0 -265 c0 -251 -1 -265 -19 -271 -66
-20 -197 -131 -286 -241 -62 -76 -39 -89 25 -13 111 131 239 232 295 232 36 0
132 -62 159 -103 12 -19 29 -53 36 -74 15 -47 16 -179 0 -256 l-10 -54 57 -53
c32 -28 93 -80 135 -115 42 -35 77 -66 77 -71 1 -4 -28 -45 -63 -91 -196 -257
-333 -610 -396 -1021 -36 -234 -41 -764 -7 -752 9 3 11 34 7 108 -30 618 100
1174 366 1576 71 108 228 271 335 349 169 124 382 226 545 262 l74 16 33 -30
c17 -17 55 -48 82 -69 28 -22 59 -47 70 -57 11 -9 41 -34 66 -55 26 -21 70
-58 98 -81 51 -43 53 -44 127 -44 51 0 80 4 89 13 21 21 89 166 116 244 13 39
25 72 26 74 6 10 132 -33 205 -69 147 -74 238 -150 313 -261 61 -91 92 -167
116 -283 44 -213 5 -438 -99 -568 l-29 -37 -89 105 c-119 143 -310 320 -424
395 l-25 16 32 17 c44 22 63 53 63 101 0 77 -53 105 -199 105 -75 0 -82 2 -76
18 13 29 18 72 9 72 -5 0 -24 -34 -43 -76 -41 -91 -122 -215 -199 -303 -167
-191 -462 -405 -777 -565 -138 -71 -152 -80 -137 -90 20 -12 320 149 497 267
181 122 385 297 462 398 l37 49 146 0 c141 0 147 -1 185 -27 136 -91 355 -297
467 -439 246 -310 422 -641 548 -1032 105 -324 183 -731 222 -1167 19 -208 15
-770 -6 -975 -39 -386 -106 -724 -204 -1037 l-11 -33 613 0 613 0 189 308
c103 169 224 366 267 437 44 72 112 183 151 247 l71 116 70 17 c260 63 438
199 523 402 23 53 40 143 28 143 -3 0 -25 -14 -48 -30 -91 -67 -91 -17 1 167
157 314 234 558 276 873 15 112 22 455 11 543 -3 23 -10 83 -17 132 -12 95
-53 286 -67 312 -5 8 -19 20 -32 26 -13 7 -27 23 -31 37 -83 286 -168 445
-331 618 -27 28 -54 52 -60 52 -6 0 -7 -23 -3 -62 5 -53 3 -68 -15 -96 -11
-18 -37 -40 -57 -49 -33 -13 -40 -13 -70 1 -57 27 -57 84 0 237 47 125 61 209
54 333 -7 145 -42 227 -59 141 -13 -60 -68 -134 -121 -161 l-28 -15 -39 85
c-47 100 -82 209 -107 326 -14 67 -18 132 -18 310 0 245 8 320 57 523 16 71
27 131 24 134 -10 10 -32 -15 -81 -90 -26 -39 -56 -84 -67 -100 -31 -45 -134
-240 -174 -329 -77 -174 -151 -430 -174 -608 -7 -47 -13 -87 -15 -88 -5 -5
-46 62 -80 128 -44 88 -82 186 -106 276 -12 46 -26 84 -31 84 -13 0 -98 -120
-133 -190 -135 -271 -193 -535 -231 -1058 l-6 -73 -44 60 c-24 34 -50 61 -57
61 -8 0 -23 -21 -35 -47 -59 -129 -80 -336 -62 -605 6 -99 15 -204 20 -233 11
-69 4 -91 -31 -104 -42 -15 -70 -1 -141 69 -33 33 -66 60 -73 60 -29 0 -35
-382 -10 -577 40 -299 156 -655 297 -905 21 -37 38 -70 38 -73 0 -2 -28 -2
-62 2 l-61 6 6 -35 c12 -77 77 -200 182 -346 26 -37 182 -178 224 -203 18 -11
32 -21 30 -23 -17 -14 -457 -355 -579 -449 -85 -66 -167 -131 -182 -145 -15
-14 -30 -24 -32 -21 -2 2 7 68 20 147 60 364 82 754 65 1120 -38 816 -206
1495 -496 2011 -20 35 -34 67 -33 72 2 4 26 32 54 61 168 176 305 434 368 693
28 119 52 354 41 405 l-7 30 -306 0 -307 0 -72 85 -72 84 -3 561 c-3 556 -3
560 17 554 11 -4 32 -13 47 -20 35 -18 68 -18 68 0 0 16 -41 52 -71 61 -10 4
-19 15 -19 25 0 12 -13 26 -31 35 -16 9 -29 21 -26 28 3 9 598 242 1012 397
28 10 120 45 205 78 85 33 256 98 380 145 124 47 286 108 360 137 74 28 205
78 290 110 85 32 200 76 255 98 55 21 251 96 435 167 375 143 376 143 363 156
-20 20 -406 74 -733 103 -1047 93 -2125 37 -3155 -165 -241 -47 -202 -52 -415
46 -74 34 -175 81 -225 103 -489 220 -1055 476 -1233 558 -41 19 -75 34 -77
34 -2 0 -41 17 -87 38 -46 22 -156 72 -245 112 l-163 73 0 52 0 53 83 7 82 7
37 49 c28 36 48 51 78 59 53 14 51 34 -6 56 l-45 17 -45 -32 c-41 -28 -51 -31
-92 -26 -96 12 -92 9 -92 70 l0 55 85 42 c47 23 85 48 85 54 0 6 -38 21 -85
34 l-85 23 0 393 0 394 -196 0 -197 0 26 -20 c14 -11 42 -27 61 -35 34 -14 49
-35 26 -35 -16 0 -91 40 -126 66 -30 23 -38 24 -197 24 -141 0 -167 -2 -167
-15z m630 -15 c34 -18 52 -109 27 -141 -20 -26 -55 -40 -82 -33 -61 15 -76
105 -26 155 31 31 51 35 81 19z m-630 -70 c0 -22 -1 -40 -2 -40 -2 0 -50 13
-108 29 -111 30 -112 38 -5 43 28 2 65 4 83 6 31 3 32 2 32 -38z m740 -36 c0
-10 -7 -14 -22 -12 -32 5 -35 28 -4 28 17 0 26 -5 26 -16z m-585 -53 c135 -60
192 -180 220 -461 11 -104 23 -180 35 -206 34 -79 128 -124 255 -124 43 0 75
-4 75 -10 0 -19 -165 -12 -224 10 -119 45 -139 83 -161 305 -25 246 -53 329
-136 413 -33 33 -59 48 -116 65 -40 12 -73 27 -73 33 0 15 66 1 125 -25z
m-118 -195 c126 -7 143 -14 143 -62 0 -46 -20 -47 -154 -11 -70 19 -129 37
-133 40 -3 3 -2 23 2 44 6 33 8 35 15 17 7 -19 19 -21 127 -28z m173 -376 c32
-32 27 -94 -9 -131 -57 -56 -121 -26 -121 56 0 35 6 52 25 70 30 31 77 33 105
5z m635 -73 c27 -7 45 -16 40 -19 -34 -20 -105 -58 -109 -58 -3 0 -6 20 -6 45
0 50 1 51 75 32z m-734 -174 c60 -65 73 -111 48 -167 -18 -39 -129 -85 -129
-53 0 9 13 17 34 21 18 4 46 18 61 32 23 22 26 30 20 62 -8 42 -51 101 -89
122 -14 7 -26 19 -26 27 0 19 47 -6 81 -44z m249 7 c20 -11 40 -59 40 -97 0
-34 -42 -73 -80 -73 -41 0 -70 31 -70 75 0 80 53 126 110 95z m674 -49 c3 -5
-5 -12 -18 -15 -13 -3 -41 -28 -62 -56 l-38 -50 -73 0 -73 0 0 45 0 46 74 -7
c68 -6 76 -5 112 20 39 27 68 33 78 17z m-298 -236 c17 -13 12 -14 -51 -9
-141 12 -200 -46 -314 -306 -47 -108 -83 -153 -144 -180 -58 -27 -197 -24
-197 4 0 7 31 11 93 11 134 0 148 12 243 212 84 175 111 215 173 255 38 23 56
28 111 28 43 0 73 -5 86 -15z m-546 -120 c6 -19 9 -49 5 -65 l-7 -30 -81 0
c-77 0 -86 -2 -133 -34 l-50 -34 -88 24 c-49 13 -91 25 -93 28 -4 3 95 18 141
20 5 1 17 19 26 41 l17 40 109 21 c147 29 141 30 154 -11z m550 -74 c0 -5 -22
-11 -49 -13 -168 -16 -271 -228 -181 -373 37 -60 122 -116 198 -131 18 -4 32
-13 32 -21 0 -10 -6 -12 -22 -7 -122 37 -189 83 -234 159 -73 126 -17 302 118
369 51 25 138 36 138 17z m230 -188 c27 -37 30 -45 14 -39 -60 23 -69 20 -109
-38 -21 -31 -45 -58 -54 -60 -9 -3 -53 -8 -99 -11 l-83 -7 3 58 3 59 88 7 c75
7 96 13 145 42 31 19 57 35 58 35 0 1 16 -20 34 -46z m487 -498 c0 -8 -4 -12
-8 -9 -4 2 -10 0 -14 -6 -3 -5 1 -10 9 -10 9 0 16 -4 16 -10 0 -15 -16 -12
-31 6 -11 14 -10 18 6 30 23 17 22 17 22 -1z m-32 -40 c14 -14 25 -31 25 -37
0 -11 -17 5 -49 45 -20 26 -5 21 24 -8z m-646 -21 c28 -36 28 -102 1 -132 -52
-55 -137 -7 -127 71 11 79 84 114 126 61z m707 -51 c-4 -4 -11 -1 -16 7 -16
25 -11 35 7 17 9 -9 13 -20 9 -24z m-1486 -29 c0 -32 -2 -36 -22 -31 -13 3
-58 11 -101 18 -43 6 -76 14 -73 16 4 5 147 30 179 32 13 1 17 -7 17 -35z
m1530 -9 c-13 -15 -3 -25 18 -17 14 5 15 4 2 -11 -14 -15 -17 -13 -42 16 -14
18 -25 34 -22 36 2 3 11 -4 20 -15 15 -18 15 -18 11 4 -5 19 -3 21 9 11 10 -8
11 -15 4 -24z m55 -35 c3 -5 1 -10 -4 -10 -6 0 -11 5 -11 10 0 6 2 10 4 10 3
0 8 -4 11 -10z m-1391 -14 c81 -34 100 -120 46 -212 -22 -39 -41 -57 -75 -74
-60 -29 -135 -39 -135 -18 0 12 15 17 55 20 69 6 122 45 149 111 41 98 -6 156
-135 165 -38 2 -69 9 -69 13 0 14 128 10 164 -5z m1380 -22 c5 -13 9 -14 21
-4 9 7 15 8 15 2 0 -9 -31 -27 -34 -20 -1 2 -8 11 -15 21 -7 9 -9 17 -3 17 5
0 13 -7 16 -16z m-217 -65 c21 -22 39 -50 39 -62 1 -12 7 -23 13 -25 6 -2 8
-9 5 -14 -5 -7 -2 -8 5 -4 9 6 8 13 -5 27 -9 10 -15 19 -11 19 3 0 24 -23 47
-52 36 -46 39 -53 26 -66 -8 -9 -29 -15 -46 -15 -17 0 -26 -3 -20 -7 6 -4 0
-12 -15 -18 -15 -7 -30 -10 -35 -7 -4 3 -10 -2 -14 -10 -3 -8 -10 -15 -17 -15
-6 0 -9 7 -5 15 3 8 1 14 -5 12 -11 -2 -133 183 -125 190 9 10 112 73 118 73
4 0 24 -18 45 -41z m288 -19 c13 -27 14 -32 2 -20 -8 8 -18 26 -22 40 -9 32
-2 25 20 -20z m-613 -153 c43 -71 75 -133 72 -139 -4 -6 -3 -8 3 -5 9 6 83
-109 83 -130 0 -6 -17 -18 -37 -26 -21 -8 -113 -51 -205 -96 -92 -45 -170 -81
-173 -81 -3 0 -5 117 -5 259 l0 259 53 38 c28 21 54 41 57 44 3 3 16 14 30 23
23 16 25 16 34 -1 5 -9 45 -75 88 -145z m-327 129 c19 -8 35 -22 35 -30 0 -12
-5 -12 -32 2 -53 27 -170 23 -239 -9 -90 -42 -172 -119 -207 -192 -34 -72 -78
-123 -124 -146 -53 -25 -108 -28 -108 -5 0 9 7 14 18 13 68 -10 134 39 188
140 56 105 144 185 245 221 65 23 175 26 224 6z m995 10 c0 -3 -4 -8 -10 -11
-5 -3 -10 -1 -10 4 0 6 5 11 10 11 6 0 10 -2 10 -4z m61 -129 c-10 -9 -11 -8
-5 6 3 10 9 15 12 12 3 -3 0 -11 -7 -18z m34 -46 c-6 -5 -25 10 -25 20 0 5 6
4 14 -3 8 -7 12 -15 11 -17z m1995 -57 c30 -52 35 -104 15 -164 -36 -110 -136
-180 -256 -180 -56 0 -122 13 -138 27 -3 2 14 19 37 39 23 19 42 42 42 50 0
21 -9 17 -52 -22 -75 -67 -179 -95 -303 -79 l-58 7 69 38 c72 39 112 75 100
87 -4 4 -13 3 -20 -2 -136 -101 -248 -137 -470 -150 l-109 -7 42 43 c42 43 91
133 91 167 0 15 16 22 95 40 133 31 379 79 513 100 l112 18 0 -23 c0 -34 -25
-89 -61 -134 -32 -40 -33 -57 -5 -46 27 11 86 114 93 162 4 32 10 45 22 46 9
0 57 6 106 13 50 7 95 10 102 8 7 -2 21 -19 33 -38z m-1065 -214 c-16 -31 -30
-48 -37 -44 -6 4 -8 3 -5 -4 4 -5 -14 -29 -39 -51 -42 -37 -52 -41 -101 -41
l-54 0 39 39 c39 40 72 96 72 124 0 10 24 21 73 34 86 24 90 19 52 -57z
m-2142 34 c18 -9 47 -30 65 -47 29 -28 35 -30 62 -20 25 9 30 9 30 -3 0 -8
-12 -19 -26 -25 -27 -10 -57 3 -93 39 -32 32 -64 45 -114 45 -101 2 -226 -81
-281 -184 -45 -85 -72 -109 -122 -109 -56 0 -74 8 -74 33 0 19 1 19 18 4 25
-23 85 -22 105 1 9 10 28 40 42 67 48 92 149 176 245 206 43 13 110 10 143 -7z
m1987 -16 c0 -28 -48 -90 -95 -123 l-49 -35 -130 1 c-72 0 -149 3 -171 7 -38
7 -31 11 155 71 107 35 213 69 235 76 52 17 55 17 55 3z m527 -153 c72 -19
131 -19 212 0 59 14 68 14 105 -1 26 -11 73 -18 126 -19 82 -2 85 -3 103 -31
49 -76 127 -299 127 -360 0 -22 -2 -23 -20 -12 -11 7 -20 21 -20 30 0 16 -51
38 -89 38 -11 0 -10 4 3 19 30 33 11 44 -64 37 -74 -8 -85 -2 -85 44 0 37 -29
37 -107 -1 l-69 -33 -34 39 c-49 59 -53 36 -6 -33 44 -63 73 -138 85 -212 l7
-45 -91 -86 c-49 -47 -90 -90 -90 -95 1 -5 39 -38 87 -74 47 -36 92 -74 100
-86 41 -63 61 -355 34 -504 -20 -112 -57 -223 -113 -337 l-50 -103 -64 0 -64
0 -107 87 c-347 281 -449 367 -461 386 -16 27 -9 104 12 145 20 39 59 63 114
71 25 3 47 12 50 20 10 29 -128 -10 -160 -46 -28 -30 -48 -89 -48 -137 0 -41
-3 -46 -27 -52 -67 -16 -146 -70 -219 -148 -41 -43 -74 -86 -74 -95 0 -9 34
21 75 65 77 84 143 133 207 154 38 11 38 11 114 -51 l77 -63 -87 -23 c-220
-58 -438 -179 -626 -347 l-95 -85 -27 22 c-15 12 -75 63 -132 112 l-105 90 7
60 c13 116 7 236 -16 287 -26 59 -91 124 -148 149 l-44 20 0 278 0 278 88 26
c228 68 341 82 647 81 138 -1 273 -6 300 -10 l50 -9 24 -73 c12 -40 21 -75 20
-76 -2 -2 -51 5 -109 16 -126 23 -395 29 -510 10 -132 -22 -250 -55 -250 -69
0 -22 60 -91 111 -129 25 -18 81 -48 125 -66 75 -30 86 -32 209 -33 137 0 194
10 275 51 56 27 127 89 164 142 l28 41 -28 85 c-15 47 -25 88 -22 91 3 4 30 2
59 -3 77 -14 83 -7 76 98 -3 51 -14 107 -27 140 -27 69 -37 80 -54 58 -17 -23
-20 -23 -153 14 -94 25 -116 29 -123 17 -5 -7 -6 -17 -4 -21 3 -5 -42 -6 -100
-2 -79 5 -109 4 -121 -6 -10 -8 -71 -16 -162 -22 -187 -13 -217 -23 -178 -61
13 -13 4 -18 -68 -44 -58 -20 -82 -33 -81 -44 1 -10 -31 -32 -92 -62 l-94 -47
0 144 0 143 138 61 c75 33 207 88 292 122 l154 62 331 -4 c364 -5 574 4 650
25 67 19 66 19 132 2z m593 -525 c106 -17 100 -12 100 -91 0 -62 -2 -70 -17
-65 -47 14 -202 26 -337 26 l-150 0 52 53 c29 29 52 60 52 70 0 15 13 17 118
17 64 0 146 -5 182 -10z m-270 -170 c0 -13 -7 -20 -20 -20 -19 0 -27 20 -13
33 13 14 33 6 33 -13z m-1352 -23 c2 -12 -3 -17 -17 -17 -15 0 -21 6 -21 21 0
25 33 22 38 -4z m-1035 -2 c63 -16 135 -50 184 -87 l31 -24 -36 -56 c-21 -31
-45 -72 -55 -90 l-19 -33 -25 29 c-23 27 -25 36 -19 83 6 52 5 54 -26 73 -18
11 -51 22 -74 26 -46 7 -139 -15 -133 -31 2 -5 11 -8 19 -6 55 13 131 11 164
-4 20 -10 34 -21 31 -25 -3 -5 -6 -26 -7 -48 -1 -37 -4 -41 -34 -46 -48 -10
-91 -59 -105 -122 -10 -46 -10 -60 5 -98 10 -25 31 -57 48 -71 l30 -25 -32
-80 c-18 -44 -36 -80 -40 -80 -18 0 -67 44 -128 114 l-42 49 0 248 0 248 29
20 c29 21 117 49 156 50 12 1 47 -6 78 -14z m2437 -6 c0 -5 -7 -9 -15 -9 -15
0 -20 12 -9 23 8 8 24 -1 24 -14z m318 -56 l-3 -78 -47 -23 c-65 -30 -141 -49
-237 -57 l-80 -7 -7 28 c-3 16 -13 39 -20 52 l-14 22 72 0 c126 0 223 38 279
109 13 16 32 30 42 30 16 1 18 -7 15 -76z m-3681 48 c57 -27 130 -96 157 -151
13 -25 38 -90 56 -145 92 -284 251 -485 383 -485 25 0 37 -4 37 -14 0 -11 -9
-13 -37 -9 -67 10 -126 45 -193 112 -51 52 -77 90 -122 181 -31 63 -73 162
-93 220 -20 58 -47 124 -60 147 -33 55 -98 110 -157 131 -48 17 -63 32 -30 32
9 0 36 -9 59 -19z m1861 -98 c52 -26 66 -28 167 -28 94 0 117 4 156 23 42 21
93 64 122 104 10 15 19 16 62 6 28 -5 53 -13 58 -17 12 -12 -34 -71 -90 -117
-152 -124 -432 -138 -616 -30 -44 26 -150 126 -142 134 2 3 37 12 77 22 l73
17 38 -43 c21 -24 63 -56 95 -71z m142 91 c0 -9 -5 -14 -12 -12 -18 6 -21 28
-4 28 9 0 16 -7 16 -16z m-171 -21 c-7 -10 -10 -15 -5 -11 5 4 22 0 38 -8 17
-9 27 -11 24 -6 -9 15 21 23 50 12 34 -13 136 -13 171 1 33 12 38 12 38 0 0
-5 4 -13 9 -18 5 -4 6 -3 2 4 -10 17 28 35 42 21 9 -9 12 -9 12 2 0 7 3 10 6
7 4 -3 16 -1 28 5 42 22 -5 -22 -53 -50 -43 -25 -54 -27 -166 -27 -112 0 -124
2 -172 28 -55 29 -65 42 -35 50 9 3 19 5 21 6 2 0 -3 -7 -10 -16z m56 -4 c-10
-15 -25 -10 -19 6 4 8 10 12 15 9 5 -3 7 -10 4 -15z m1332 -3 c15 1 33 -2 39
-7 9 -7 16 -5 24 8 8 13 13 14 16 5 3 -6 10 -9 16 -6 6 4 14 0 19 -7 6 -10 9
-10 9 -2 0 7 10 13 23 12 59 -1 96 4 92 11 -3 5 4 6 15 3 11 -3 18 -8 16 -12
-6 -9 49 -6 63 4 6 3 11 4 11 1 0 -14 -82 -45 -145 -55 -66 -10 -101 -10 -170
5 -32 7 -75 40 -75 58 0 6 5 4 10 -5 6 -10 20 -15 37 -13z m463 -181 l0 -65
-46 -30 c-25 -16 -59 -32 -75 -35 -16 -4 -29 -11 -29 -16 0 -17 34 -9 93 20
l57 30 0 -309 0 -309 -52 36 c-67 46 -196 106 -271 128 -47 14 -57 20 -52 33
17 43 37 254 32 333 l-6 87 102 4 c102 4 159 20 139 40 -7 7 -17 6 -30 -1 -27
-14 -161 -26 -196 -17 -19 5 -26 13 -26 30 0 22 4 23 85 30 83 6 239 47 250
66 16 25 25 4 25 -55z m-3677 -79 c143 -99 197 -240 151 -397 -19 -65 -46 -97
-90 -105 -41 -8 -144 23 -144 43 0 11 4 11 28 0 43 -22 101 -30 133 -17 37 16
61 75 67 171 5 88 -12 139 -74 214 -36 44 -125 115 -144 115 -6 0 -10 7 -10
16 0 18 2 16 83 -40z m989 27 l25 -28 -54 -115 -55 -115 -34 38 c-31 33 -34
43 -34 95 0 66 26 117 70 139 37 19 54 16 82 -14z m-189 -450 c18 -9 15 -22
-44 -196 -51 -150 -66 -187 -81 -187 -17 0 -18 16 -18 258 l0 259 63 -62 c34
-34 70 -66 80 -72z m-823 -209 c90 -31 166 -80 237 -152 115 -115 173 -253
227 -546 9 -49 24 -103 33 -120 26 -52 84 -117 119 -134 19 -8 34 -19 34 -23
0 -14 -89 42 -114 71 -45 54 -75 134 -101 267 -40 204 -77 304 -158 417 -64
88 -186 174 -294 206 -24 7 -43 17 -43 22 0 11 8 10 60 -8z m13 -295 c102 -68
166 -171 211 -344 15 -55 40 -129 57 -164 16 -35 27 -66 25 -68 -8 -9 -64 123
-91 212 -63 216 -94 263 -247 377 -40 30 -3 19 45 -13z m3311 -82 c53 -35 45
-110 -14 -139 -29 -15 -62 -18 -182 -18 -82 0 -148 3 -148 6 0 3 11 20 24 37
13 18 36 55 52 84 l28 52 107 -3 c80 -1 113 -6 133 -19z m2166 -368 c17 -31 5
-50 -30 -47 -25 2 -30 6 -30 28 0 15 3 30 7 33 13 14 43 6 53 -14z m204 -70
c54 -64 68 -114 52 -185 -9 -38 -39 -54 -83 -42 -35 9 -53 45 -53 106 0 51 30
152 45 152 7 0 25 -14 39 -31z m-5316 -137 c34 -41 119 -98 192 -130 30 -13
42 -20 26 -17 -51 11 -133 55 -187 100 -37 31 -89 94 -89 108 0 7 7 3 16 -8 8
-11 27 -35 42 -53z m6195 -351 c3 -27 16 -81 27 -120 19 -61 20 -76 10 -102
-14 -32 -37 -49 -69 -49 -61 0 -78 160 -27 264 34 70 51 72 59 7z m-635 -43
c82 -52 168 -114 177 -129 4 -6 -4 -23 -18 -37 -45 -47 -70 -119 -70 -197 0
-82 9 -104 97 -250 118 -194 140 -293 110 -495 l-5 -35 -85 -1 c-81 0 -85 1
-80 20 20 72 28 214 17 294 -21 147 -60 232 -185 400 -119 160 -137 212 -111
315 13 52 68 157 81 157 3 0 35 -19 72 -42z m-5668 6 c0 -2 -7 -4 -15 -4 -8 0
-15 4 -15 10 0 5 7 7 15 4 8 -4 15 -8 15 -10z m60 -21 c44 -31 80 -77 80 -103
-1 -8 -8 -1 -17 15 -21 41 -43 65 -78 86 -16 11 -25 19 -20 19 6 0 22 -8 35
-17z m6004 -247 l137 -144 -34 -45 c-66 -86 -72 -178 -20 -304 26 -64 28 -77
27 -208 0 -164 -17 -260 -42 -250 -33 14 -88 25 -126 25 -37 0 -38 1 -32 28
28 125 25 275 -8 368 -19 56 -73 161 -108 211 -78 114 -97 214 -61 318 15 47
98 145 121 145 6 0 71 -65 146 -144z m-974 108 c11 -29 13 -78 4 -112 -5 -19
-12 -23 -38 -20 -30 3 -31 5 -34 54 -2 39 2 56 18 77 27 34 38 34 50 1z
m-4943 -6 c-3 -8 -6 -5 -6 6 -1 11 2 17 5 13 3 -3 4 -12 1 -19z m5297 0 c26
-17 36 -32 40 -61 9 -56 39 -108 128 -226 137 -180 181 -293 182 -466 1 -95
-18 -239 -34 -265 -6 -9 -15 -8 -38 4 -39 20 -127 33 -172 26 l-35 -6 0 125
c-1 149 -17 216 -96 397 -75 173 -89 218 -89 293 0 63 28 147 62 188 13 17 12
17 52 -9z m-5264 -56 c0 -15 -2 -15 -10 -2 -13 20 -13 33 0 25 6 -3 10 -14 10
-23z m65 -92 c10 -11 16 -20 13 -20 -3 0 -13 9 -23 20 -10 11 -16 20 -13 20 3
0 13 -9 23 -20z m6154 -240 c101 -197 136 -354 128 -580 -4 -132 -30 -300 -46
-300 -3 0 -15 13 -25 29 -40 59 -146 114 -247 127 -45 6 -50 9 -45 28 3 12 13
70 22 131 23 152 15 279 -20 364 -15 35 -30 85 -33 111 -11 91 44 196 121 230
l41 18 28 -31 c15 -18 50 -75 76 -127z m-5804 -277 c74 -75 128 -205 153 -365
l9 -58 -419 0 c-272 0 -418 -3 -418 -10 0 -7 146 -10 419 -10 l419 0 7 -97 c6
-91 -9 -365 -21 -384 -3 -5 -178 -9 -390 -9 -260 0 -383 -3 -379 -10 4 -7 137
-10 383 -10 365 1 377 0 380 -18 4 -23 -30 -235 -54 -339 l-16 -73 -248 0
c-155 0 -251 -4 -255 -10 -4 -7 80 -10 244 -10 212 0 251 -2 251 -14 0 -13
-72 -267 -101 -359 -10 -29 -21 -42 -48 -54 -121 -51 -400 -91 -551 -77 l-76
6 -32 83 c-99 263 -169 604 -203 1000 -14 156 -17 693 -5 798 l8 67 448 0 448
0 47 -47z m237 -43 c56 -26 58 -43 58 -454 l0 -376 -25 -10 c-41 -16 -50 -49
-37 -136 7 -42 24 -105 38 -140 14 -36 23 -68 20 -71 -10 -11 -81 -18 -121
-13 -47 6 -46 -7 -17 180 64 413 41 772 -61 965 -19 35 -32 67 -28 71 10 10
144 -2 173 -16z m4117 -108 c53 -26 121 -160 171 -337 11 -38 42 -106 69 -151
l49 -82 -57 -7 c-166 -20 -249 -64 -310 -164 -24 -42 -24 -43 -46 119 -21 166
-57 340 -98 483 -23 81 -30 120 -23 125 19 11 119 30 166 31 25 1 60 -7 79
-17z m-279 -42 c0 -5 -4 -10 -10 -10 -5 0 -10 5 -10 10 0 6 5 10 10 10 6 0 10
-4 10 -10z m380 0 c0 -5 -2 -10 -4 -10 -3 0 -8 5 -11 10 -3 6 -1 10 4 10 6 0
11 -4 11 -10z m-393 -35 c4 -4 2 -5 -4 -1 -9 5 -13 0 -13 -15 0 -12 3 -19 7
-16 3 4 15 -5 26 -20 13 -19 17 -21 12 -8 -10 31 -19 81 -12 75 10 -10 86
-286 101 -370 49 -271 66 -436 66 -631 0 -271 28 -380 120 -463 48 -43 80 -58
175 -82 l68 -17 -34 -28 c-19 -16 -59 -49 -90 -74 l-57 -44 -45 30 c-68 45
-183 155 -239 229 -48 62 -143 244 -150 284 -3 17 3 19 66 17 37 -1 67 1 65 6
-2 4 -31 57 -64 118 -150 277 -249 586 -285 893 -7 57 -10 106 -6 109 3 4 6
-3 6 -15 0 -18 4 -20 23 -13 12 4 32 5 45 2 12 -3 59 -4 105 -1 76 5 82 7 81
26 0 21 18 26 33 9z m412 8 c-5 -29 1 -35 19 -22 15 13 16 12 3 -3 -7 -10 -11
-25 -7 -34 6 -17 26 -10 26 9 0 7 -4 6 -11 -3 -9 -13 -10 -13 -6 0 3 12 30 15
158 16 86 0 160 3 166 7 14 9 23 -2 23 -25 0 -30 22 -16 36 23 l12 34 1 -45
c0 -85 -14 -127 -57 -170 -45 -45 -72 -111 -72 -175 0 -33 -8 -52 -36 -89 -19
-25 -39 -44 -44 -41 -26 16 -122 198 -141 266 -23 85 -67 208 -81 226 -5 7 -7
17 -3 23 7 12 16 13 14 3z m1520 -55 c1 23 3 24 54 17 28 -4 55 -13 59 -19 5
-7 8 -3 8 9 0 17 2 17 10 5 8 -13 10 -12 10 4 0 15 3 16 14 7 12 -10 15 -8 20
11 15 67 -7 -214 -24 -312 -50 -273 -120 -476 -254 -736 -36 -69 -68 -142 -72
-160 -11 -59 26 -80 86 -49 28 14 30 14 30 -2 0 -9 -18 -54 -40 -99 -67 -138
-183 -245 -334 -306 -74 -31 -185 -62 -193 -54 -14 13 32 69 71 86 56 23 80
55 104 138 70 235 212 721 212 725 0 2 27 30 59 63 68 68 86 116 78 207 -4 40
0 75 14 120 32 102 49 192 56 300 7 100 7 101 19 62 9 -29 13 -33 13 -17z
m-5673 -783 c8 -27 24 -64 34 -82 18 -31 18 -31 -7 -55 -24 -23 -25 -23 -39
-3 -22 30 -51 132 -59 206 -7 62 -6 67 16 83 l24 16 7 -57 c4 -32 15 -80 24
-108z m-891 -1083 c-3 -3 -11 0 -18 7 -9 10 -8 11 6 5 10 -3 15 -9 12 -12z
m309 -338 c3 -8 2 -12 -4 -9 -6 3 -10 10 -10 16 0 14 7 11 14 -7z m-273 -31
c13 -16 12 -17 -3 -4 -10 7 -18 15 -18 17 0 8 8 3 21 -13z m-33 -118 c-3 -3
-9 2 -12 12 -6 14 -5 15 5 6 7 -7 10 -15 7 -18z m118 -102 c-5 -5 -36 86 -35
101 0 6 9 -13 20 -43 10 -30 17 -56 15 -58z m-102 71 c3 -8 2 -12 -4 -9 -6 3
-10 10 -10 16 0 14 7 11 14 -7z m24 -89 c0 -16 -2 -15 -8 5 -11 34 -11 60 0
35 5 -11 8 -29 8 -40z m113 -12 c13 -16 12 -17 -3 -4 -10 7 -18 15 -18 17 0 8
8 3 21 -13z m196 -39 c-3 -3 -12 -4 -19 -1 -8 3 -5 6 6 6 11 1 17 -2 13 -5z
m-40 -10 c-3 -3 -12 -4 -19 -1 -8 3 -5 6 6 6 11 1 17 -2 13 -5z m-189 -179
c-3 -3 -9 2 -12 12 -6 14 -5 15 5 6 7 -7 10 -15 7 -18z m87 -73 c-3 -3 -11 0
-18 7 -9 10 -8 11 6 5 10 -3 15 -9 12 -12z"/>
<path d="M3960 7409 c0 -5 5 -7 10 -4 6 3 10 8 10 11 0 2 -4 4 -10 4 -5 0 -10
-5 -10 -11z"/>
<path d="M3995 7380 c-3 -5 -1 -10 4 -10 6 0 11 5 11 10 0 6 -2 10 -4 10 -3 0
-8 -4 -11 -10z"/>
<path d="M5811 7146 c-8 -10 -9 -16 -1 -21 13 -8 30 3 30 21 0 18 -14 18 -29
0z"/>
<path d="M5890 7035 c0 -17 2 -18 24 -9 18 7 12 24 -10 24 -8 0 -14 -7 -14
-15z"/>
<path d="M5075 6091 c-6 -11 9 -23 19 -14 9 9 7 23 -3 23 -6 0 -12 -4 -16 -9z"/>
<path d="M5001 6009 c-51 -45 -141 -91 -221 -110 -57 -14 -245 -17 -293 -6
-20 6 -27 4 -27 -6 0 -29 200 -36 315 -12 86 18 197 72 248 120 35 34 47 56
30 55 -5 -1 -28 -19 -52 -41z"/>
<path d="M4982 5890 c-50 -56 -53 -81 -6 -42 23 18 74 85 74 95 0 17 -19 2
-68 -53z"/>
<path d="M3340 6060 c0 -5 5 -10 10 -10 6 0 10 5 10 10 0 6 -4 10 -10 10 -5 0
-10 -4 -10 -10z"/>
<path d="M3370 5717 c0 -18 73 -92 78 -78 2 6 -10 25 -27 43 -17 18 -31 36
-31 41 0 4 -4 7 -10 7 -5 0 -10 -6 -10 -13z"/>
<path d="M5850 6155 c0 -8 29 -12 39 -5 9 5 4 8 -13 8 -14 0 -26 -2 -26 -3z"/>
<path d="M6260 5960 c0 -5 6 -10 14 -10 8 0 18 5 21 10 3 6 -3 10 -14 10 -12
0 -21 -4 -21 -10z"/>
<path d="M2740 2670 c0 -5 5 -10 10 -10 6 0 10 5 10 10 0 6 -4 10 -10 10 -5 0
-10 -4 -10 -10z"/>
<path d="M3859 5607 c-46 -28 -93 -83 -83 -98 4 -7 22 5 49 33 23 25 56 50 74
57 17 8 31 17 31 22 0 16 -34 9 -71 -14z"/>
<path d="M3727 5472 c-18 -20 -23 -42 -9 -42 18 0 46 40 36 50 -7 7 -16 4 -27
-8z"/>
<path d="M3526 5402 c-3 -6 -1 -14 5 -17 15 -10 25 3 12 16 -7 7 -13 7 -17 1z"/>
<path d="M5200 5360 c-8 -5 -32 -16 -52 -24 -34 -13 -52 -36 -29 -36 25 0 121
45 121 56 0 16 -18 17 -40 4z"/>
<path d="M6045 5291 c-3 -6 18 -22 47 -37 63 -31 197 -129 205 -150 7 -18 33
-18 33 0 0 19 -123 120 -190 157 -65 36 -87 42 -95 30z"/>
<path d="M5045 5279 c-10 -15 1 -23 20 -15 9 3 13 10 10 16 -8 13 -22 13 -30
-1z"/>
<path d="M5170 5275 c0 -8 7 -15 15 -15 8 0 15 7 15 15 0 8 -7 15 -15 15 -8 0
-15 -7 -15 -15z"/>
<path d="M4507 4913 c-12 -11 -8 -23 8 -23 8 0 15 7 15 15 0 16 -12 20 -23 8z"/>
<path d="M4433 4838 c-61 -68 -198 -276 -205 -312 -8 -45 20 -19 65 58 26 46
77 123 113 171 39 52 62 91 57 96 -6 6 -18 0 -30 -13z"/>
<path d="M5900 4604 c0 -12 71 -94 81 -94 18 0 8 26 -25 63 -31 33 -56 47 -56
31z"/>
<path d="M5827 4474 c-9 -10 6 -44 19 -44 18 0 18 36 0 43 -8 3 -16 3 -19 1z"/>
<path d="M6007 4474 c-8 -8 1 -24 14 -24 5 0 9 7 9 15 0 15 -12 20 -23 9z"/>
<path d="M4206 4463 c-11 -11 -6 -23 9 -23 8 0 15 4 15 9 0 13 -16 22 -24 14z"/>
<path d="M6460 4008 c0 -7 20 -47 43 -88 24 -41 50 -90 58 -107 13 -32 39 -45
39 -22 0 7 -21 51 -47 98 -26 47 -52 95 -58 105 -12 24 -35 33 -35 14z"/>
<path d="M6612 3709 c2 -6 8 -10 13 -10 5 0 11 4 13 10 2 6 -4 11 -13 11 -9 0
-15 -5 -13 -11z"/>
<path d="M5266 2228 c-3 -7 -7 -47 -11 -89 -3 -42 -12 -111 -19 -153 -12 -69
-8 -101 11 -82 8 8 42 233 43 283 0 40 -16 68 -24 41z"/>
<path d="M6919 2128 c-1 -2 -3 -54 -3 -115 -2 -87 1 -113 11 -113 16 0 19 215
3 225 -5 3 -11 5 -11 3z"/>
<path d="M5166 1524 c-10 -38 10 -55 24 -20 13 36 13 46 -4 46 -8 0 -17 -12
-20 -26z"/>
<path d="M5985 460 c-7 -12 2 -30 16 -30 5 0 9 9 9 20 0 21 -15 27 -25 10z"/>
<path d="M6825 449 c-10 -27 -10 -108 0 -111 14 -4 28 103 16 115 -7 7 -12 5
-16 -4z"/>
<path d="M4166 254 c-9 -22 -7 -44 2 -44 12 0 32 46 25 54 -11 10 -21 7 -27
-10z"/>
<path d="M6761 114 c-12 -58 -20 -109 -16 -112 11 -11 23 14 38 83 29 127 30
135 15 135 -10 0 -21 -32 -37 -106z"/>
<path d="M5866 104 c-29 -86 -32 -105 -19 -102 16 3 73 152 73 190 0 44 -21
10 -54 -88z"/>
</g>
</svg>
